<?xml version="1.0" encoding="utf-8"?>
<!-- Generator: Adobe Illustrator 22.0.0, SVG Export Plug-In . SVG Version: 6.00 Build 0)  -->
<svg version="1.1" id="Слой_1" xmlns="http://www.w3.org/2000/svg" xmlns:xlink="http://www.w3.org/1999/xlink" x="0px" y="0px"
	 viewBox="0 0 1920 1080" style="enable-background:new 0 0 1920 1080;" xml:space="preserve">
<g>
	<g>
		<path d="M1129.5,627.2c-0.4,21.7-4.3,41.1-12.2,59.7c-5.4,12.9-10.2,26.1-16.3,38.6c-4,8.2-9.7,15.5-15,23
			c-4.2,5.9-4.7,9-1.1,15.5c6.3,11.4,7.5,23.3,3.3,35.6c-3,8.9-7.4,9.9-14.9,4.4c-5.7-4.2-11.8-7.9-17.5-12.1
			c-2.2-1.6-4.1-3.9-5.9-6c-2.1-2.4-3.8-5-6-7.3c-0.7-0.8-2.5-1.3-3.5-0.9c-6.8,2.3-13.6,5-20.4,7.4c-2.2,0.8-4.6,1.9-6.7,1.6
			c-4.3-0.5-5.8,2-6.8,5.1c-4.3,13.8-9.3,17.5-23.7,19.2c-7.1,0.8-14.4,2.6-21.1,5.3c-10.8,4.3-21.9,5.9-33.2,5
			c-12-1-24-3.1-35.9-4.8c-1.3-0.2-2.8-0.4-3.7-1.2c-1.9-1.7-4.6-3.5-5-5.7c-0.3-1.3,3-3.4,4.7-5c4.3-4.1,8.7-8.2,13.1-12.3
			c3.3-3,6.5-6.2,10-9c4.1-3.3,4.8-6.6,1.5-10.5c-2.5-2.9-5.3-5.4-8.1-8.1c-8.9-8.6-18-17-26.6-25.9c-6.9-7.1-13.8-14.5-19.6-22.5
			c-12.2-16.9-23.6-34.3-29.3-54.7c-4.1-14.7-7.9-29.6-11.2-44.5c-1.3-5.9-1.2-12.2-1.4-18.4c-1-24.7,1.1-49.2,4.1-73.7
			c0.7-5.9-0.6-12.1-0.9-18.2c-0.1-1.3-0.1-2.7-0.2-4c-0.5-6-1-12.1-1.7-18.1c-1.1-9-3.2-18.1-3.2-27.1c0-8.8-4.3-15.6-7.8-22.8
			c-0.4-0.9-2.2-1.5-3.4-1.6c-5.6-0.4-11.3-0.9-16.9-0.9c-4.1,0-5.9-1.5-4.1-5.4c1.4-3.1,3-6.4,5.3-8.8c4.6-4.7,10-8.8,14.8-13.3
			c1.4-1.4,2.5-3.4,3.1-5.4c4.7-17.2,9.3-34.4,17.7-50.3c11.6-21.8,28.6-36.8,51.7-45.8c19-7.5,37.9-7.7,57.7-5
			c20.5,2.8,36.3,13.3,51.8,25.8c16,12.9,23.6,30.6,29,49.3c3,10.4,3.5,21.6,5,32.5c0.7,5.1,1,10.3,8.2,10.1c0.5,0,1.3,0.5,1.6,1
			c10.1,14.6,24.3,25.2,36.9,37.5c10.7,10.5,18.9,22.6,27.3,34.9c9.9,14.6,19.1,29.7,23.6,46.6c4.8,18.1,7.5,36.8,10.2,55.4
			C1128.7,603.6,1128.8,616.2,1129.5,627.2z M850.4,595.6c1.6,0.1,3.3,0.2,5.1,0.4c5.6,0.6,11.3,0.9,16.8,2c6.7,1.3,7.3,2.6,5,9.1
			c-3.8,10.8-7.5,21.6-11.8,32.2c-4.6,11.4-9.6,22.6-14.7,33.9c-1,2.3-3.1,4.2-4.7,6.2c-1.1-2.5-2.8-4.9-3.1-7.5
			c-1.3-11.7-2.1-23.5-3.3-35.2c-0.3-3.2-1.2-6.4-1.8-9.5c-4.7,0.4-8.6,0.8-12.6,1.1c-0.1,0.9-0.4,1.5-0.3,2.2
			c0.2,1.3,0.4,2.6,0.7,3.9c5.2,22.1,12.4,43.5,24.7,62.9c5.2,8.3,7.1,9.7,16.1,5.5c16-7.5,31.6-15.6,47.4-23.5
			c28.7-14.4,58.9-23.7,91.3-24.6c4.5-0.1,9.1-0.5,14.8-0.8c-2.9-3.5-5.2-6.5-7.8-9.2c-10.8-11.4-17.8-24.8-20.8-40.2
			c-1.4-7.2-2.4-14.4-3.8-21.6c-0.3-1.4-1.6-3.8-2.4-3.8c-6.3,0.1-7.1-5.1-9.3-9c-2.6-4.8-5.2-9.6-7.7-14.5
			c-4.4-8.2-8.8-16.4-13-24.7c-0.6-1.2-0.3-3-0.4-4.5c0.5-0.1,1.1-0.3,1.6-0.4c0.9,1.5,2,2.9,2.8,4.4c6.7,12.8,13.4,25.6,20.1,38.4
			c3.5,6.8,5.3,6.6,11.8,2.4c10.1-6.6,20.6-12.7,31.5-17.9c10.9-5.3,23-6.6,35-6.9c2.6-0.1,4.6-0.5,3.3-3.7
			c-1.8-4.5-3.3-9.1-5.8-13.2c-6.8-11.2-14.1-22.1-21.2-33.2c-0.9-1.5-1.3-3.3-1.9-5c0.7-0.5,1.4-1,2-1.5c0.8,1.4,1.6,2.8,2.5,4.1
			c5.6,8.9,11.5,17.5,16.7,26.6c4.5,8,8.3,16.5,12.2,24.9c0.5,1,0.1,3.3-0.7,3.9c-3,2.2-2.6,4.9-2.1,8c2.6,14.5,5.6,29,7.2,43.6
			c1.8,16.3,2.2,32.8,3,49.2c0.1,3,0.7,4.2,3.9,5c7.7,1.9,15.1,4.6,22.7,6.9c1.4,0.4,2.9,0.4,4.3,0.8c1.6,0.4,3.3,0.7,4.6,1.5
			c3.9,2.7,10.9,2.4,12.2-0.8c5.3-13.1,6.5-26.7,5.7-40.7c-0.4-7.3-0.9-14.6-1.7-21.9c-1.6-14.7-2.8-29.5-5.5-44
			c-4.1-21.8-13.1-41.7-24.9-60.5c-16.7-26.5-37.8-48.6-62.9-67.5c-0.9,1.2-1.5,2.1-2.2,3.1c-6.8,10.8-15.1,20.3-25.2,28.1
			c-6.3,4.9-13,9.3-19.6,13.8c-16.5,11.3-34.6,19.2-53.1,26.4c-13.8,5.4-27.9,9.7-42.1,14c-15.1,4.6-30.7,5.8-46.3,3.3
			c-5.6-0.9-11.1-2.8-17.4-4.5c-2,28.3-4.1,56.2-6.1,84.9c1.3-1,1.7-1.2,1.8-1.4c8-16.8,15.9-33.7,24-50.5c0.9-1.8,2.5-3.2,3.7-4.8
			c0.4,0.3,0.8,0.6,1.2,0.8C850.4,559.8,850.4,577.4,850.4,595.6z M822.1,454.9c-4,0.2-5,0.5-4.6,4.8c0.6,7.4,1.9,14.8,3.5,22.1
			c1.7,7.9,6,13.8,13.8,17.2c10.5,4.6,21.5,6.8,32.5,5c12.3-2,24.7-4.8,36.4-9.1c15.9-5.9,31.3-13,46.5-20.5
			c10.5-5.2,20.1-12.4,30.3-18.2c12.6-7.1,22.9-16.9,32.4-27.6c3-3.4,4.7-6.8,3.5-11.8c-1.1-4.8-0.6-10-1.5-14.9
			c-1.9-11.1-4-22.2-6.4-33.2c-2.3-10.6-8.6-19.2-14.1-28.3c-7.9-13.2-20.6-20.5-32.7-28.6c-9.1-6.1-19.6-8.3-30.4-10.5
			c-20.8-4.2-40.4-0.9-59.6,6.8c-12.4,4.9-22.3,13.3-30.8,23.2c-6.3,7.4-12.6,15.3-16.7,24.1c-5,10.8-8.1,22.5-11.1,34.1
			c-2.3,8.8-4.5,16.9-13.3,21.6c-2.6,1.4-4.7,3.7-6.7,5.9c-2.4,2.7-4.5,5.6-6.8,8.4c0.3,0.4,0.6,0.7,1,1.1c2.1-0.5,4.1-0.9,6.1-1.6
			c9.9-3.3,19.7-5.9,30.3-4c6.9,1.2,13.9,1.4,20.8,2c6.2,0.5,12.1,0.3,15.7-6.1c0.4-0.7,1.5-0.9,3.2-1.8c-3.4,11-9,19-19.6,21.5
			c-7.8,1.8-15.8,3-23.7-0.1c-2.1-0.8-4.4-0.8-6.7-1.1c-0.4,0.4-0.7,0.8-1.1,1.1C815.6,442.3,818.7,448.5,822.1,454.9z M991.2,782.6
			c0-0.8,0-1.5,0-2.3c23.1,5.3,42.8-5.4,63.5-11.9c0.7,0.8,1.3,1.5,2,2.3c-1.4,0.5-3.4,0.6-4.2,1.7c-1.3,1.8-3,4.6-2.4,6.1
			c1.1,2.8,3.4,6.4,5.8,7c4.4,1.1,7.1,3.6,9,7.1c2.3,4.3,5.4,7.1,9.8,9.5c4.4,2.4,6.3,1.2,7.9-2.8c5.4-13.7,4-26.3-5.3-37.9
			c-2.3,1.2-4.6,2.6-7.1,3.5c-0.9,0.3-2.9-0.1-3.3-0.7c-0.5-0.9,0-2.5,0.5-3.5c0.5-0.9,1.8-1.4,2.7-2.2c6.2-5.9,13.2-11.2,18.2-17.9
			c11.4-15.2,18.1-32.9,24.2-50.7c2.2-6.5,4.6-13,7.1-20.3c-2.8-0.2-4.4-0.2-6-0.4c-3.3-0.4-6.8-0.2-9.9-1.3
			c-8-2.7-15.7-6.2-23.6-9.1c-4.8-1.8-8,0.7-10,4.9c-0.7,1.3-1,2.8-1.6,4.2c-4.2,9.3-11.2,12.6-21.1,9.9c-8.7-2.3-14.6-8.5-20.1-15
			c-3.4-3.9-7.5-5.7-12.6-5.7c-16.2,0-31.9,2.9-47.6,6.7c-24.9,6-48.4,15.6-70.3,29c-7.6,4.6-15.9,8-23.9,11.9
			c-4.1,2-8.2,3.9-12.7,6.1c4,5.8,7.1,10.9,10.8,15.5c4.5,5.6,9.2,10.9,14.2,16c6.4,6.4,13.1,12.6,19.8,18.7
			c4.5,4.1,9.1,8.2,13.9,11.9c2.6,2,5.6,4.2,8.7,4.9c5.2,1.1,10.6,0.9,15.9,1.3c1.7,0.1,3.4,0.4,5,0.6c0,0.5,0,0.9,0.1,1.4
			c-1.3,0.3-2.6,0.8-4,1c-8.3,1.2-16.7,2.1-25,3.7c-4.3,0.8-9.2,2-12.3,4.8c-6.3,5.7-11.4,12.6-17.6,19.6c3.5,1.6,7,3.9,10.7,4.6
			c8.6,1.5,17.5,3.4,26,2.7c13-1,26-3.6,38.7-6.6c7.5-1.8,14.6-5.2,22.7-4.3c4.9,0.5,13.6-7.4,13.9-11.6c0.2-3,0.5-6.1,0.8-8.8
			C998.9,785,995.1,783.8,991.2,782.6z M1068.1,617.3c0.1,0,0.3,0,0.4-0.1c-0.9-5.6-1.7-11.2-2.6-16.7c-2.6-15.9-5.3-31.7-7.8-47.6
			c-0.6-3.6-2.6-3.8-5.3-3.5c-21.7,2.5-40.9,11.2-58.2,24.2c-2.9,2.2-3.7,4.8-3.1,8.3c1,5.4,1.8,10.8,2.6,16.3
			c2,14.4,6.1,27.9,15.9,39.1c6.8,7.8,13.1,15.9,20.3,23.3c4.5,4.7,9.9,8.8,15.3,12.4c6.5,4.3,13.8,2.2,18.3-4.1
			c4.9-6.9,7.1-14.6,6.7-22.9C1070.2,636.4,1069,626.9,1068.1,617.3z M845.4,674.5c0.7,0.1,1.3,0.2,2,0.2c0.4-0.7,0.8-1.3,1.1-2.1
			c4.7-11.4,9.5-22.7,13.9-34.2c3.9-10.1,7.6-20.2,11.2-30.4c1-2.8,1.1-5.9-3-6.3c-6.8-0.7-13.5-1.5-20.3-1.6
			c-3.8-0.1-5-1.1-4.6-4.9c0.9-9.6,1.5-19.2,2-28.8c0.3-5.2,0-10.4,0-16.8c-1.1,1.5-1.5,2-1.8,2.5c-5.9,11.9-11.8,23.8-17.6,35.8
			c-4.5,9.3-8.2,18.7-5.6,29.5c1.6,6.4,1.9,6.9,8.7,5.8c10.2-1.8,12.1-0.2,12.5,10.1c0,0.8,0,1.7,0,2.5
			C844.5,648.8,845,661.7,845.4,674.5z M826.4,499c-2.1,6.7-1.1,9.2,4.1,11.1c4.1,1.4,8.2,3,12.4,3.6c11.6,1.8,23.1,1.7,34.7-0.7
			c15.4-3.1,30.1-7.9,44.9-13.2c19.3-6.9,38-15.1,55.6-25.5c6.7-4,13.2-8.3,19.3-13.2c7.2-5.9,14.2-12.1,20.6-18.9
			c4.2-4.4,7.2-9.9,10.4-15.2c2.1-3.5-0.7-5.7-3.2-7.2c-0.6-0.4-3.3,1.1-3.9,2.2c-5.8,11.5-14.8,20.7-24.9,28.1
			c-14.4,10.4-29.9,19.3-45.2,28.4c-5.7,3.4-12.3,5.2-18.1,8.3c-18.2,9.7-37.2,17.2-57.7,19.7c-13.5,1.7-27.3,3-40.3-3.2
			C832.3,501.9,829.5,500.5,826.4,499z M853,426.2c-19.9,0-39.3-7.5-58.2,2.5c2.1,0.7,4.1,1,6.2,1.2c3.1,0.2,6.3,0.1,9.4,0.6
			c7.5,1.3,14.9,3.2,22.4,4.2C840.8,435.8,847.4,432.9,853,426.2z"/>
		<path d="M850.2,390.5c2.1-7.2,7.1-12.5,13-16.6c10.9-7.6,23.2-9.3,36.2-7.2c8.5,1.4,16.8,2.9,24.1,8.6c6.8,5.3,9.3,12.3,11.2,20
			c2.3,9.2,4.8,18.3,6.3,27.7c1.3,7.9,2.1,16.2,1.3,24.1c-0.4,3.6-4.4,8.2-7.9,9.8c-6,2.7-12.9,3.5-20.4,5.3
			c3.7-4.9,8.5-5.5,12.9-5.5c5.9,0,9.1-2.8,11.3-8c3-7.1,3-14,1-21.4c-2.9-10.7-6.1-21.5-7.4-32.5c-1.6-12.9-14.4-22.7-24.6-24.6
			c-11.4-2.1-22.9-2.2-34,1.2c-8.3,2.6-13.8,9-18.8,15.8c-1,1.4-1.9,2.8-2.8,4.3C851.2,391.1,850.7,390.8,850.2,390.5z"/>
		<path d="M873.6,406.4c4-5.2,6.8-11.1,11.5-14.3c6.4-4.4,10.1,4.5,15.8,5.3C897,411.6,897,416.6,873.6,406.4z"/>
	</g>
</g>
</svg>
